<svg xmlns="http://www.w3.org/2000/svg" width="1920" height="513" viewBox="0 0 1920 513">
  <path fill="#424242" d="M39.707,73.4c12.775,0,20.917-10.507,20.917-29.42,0-19.025-8.142-29-20.917-29s-20.917,9.977-20.917,29C18.79,62.894,26.932,73.4,39.707,73.4Zm0-8.036c-6.7,0-11.68-6.01-11.68-21.384s4.983-20.966,11.68-20.966,11.68,5.591,11.68,20.966S46.4,65.366,39.707,65.366Zm0-15.428a5.974,5.974,0,0,0,6.063-6.348,6.067,6.067,0,1,0-12.125,0A5.974,5.974,0,0,0,39.707,49.937ZM97.145,73.4c12.775,0,20.917-10.507,20.917-29.42,0-19.025-8.142-29-20.917-29s-20.917,9.977-20.917,29C76.228,62.894,84.37,73.4,97.145,73.4Zm0-8.036c-6.7,0-11.68-6.01-11.68-21.384s4.983-20.966,11.68-20.966,11.68,5.591,11.68,20.966S103.842,65.366,97.145,65.366Zm0-15.428a5.975,5.975,0,0,0,6.063-6.348,6.067,6.067,0,1,0-12.125,0A5.974,5.974,0,0,0,97.145,49.937ZM154.583,73.4c12.775,0,20.917-10.507,20.917-29.42,0-19.025-8.142-29-20.917-29s-20.917,9.977-20.917,29C133.666,62.894,141.808,73.4,154.583,73.4Zm0-8.036c-6.7,0-11.68-6.01-11.68-21.384s4.983-20.966,11.68-20.966,11.68,5.591,11.68,20.966S161.28,65.366,154.583,65.366Zm0-15.428a5.975,5.975,0,0,0,6.063-6.348,6.067,6.067,0,1,0-12.125,0A5.974,5.974,0,0,0,154.583,49.937Zm38.689,22.4h39.592V64h-13.7V16.041h-7.554c-3.98,2.27-8.092,3.63-15.206,4.644v6.464h12.539V64H193.272V72.34ZM269.459,73.4c12.775,0,20.917-10.507,20.917-29.42,0-19.025-8.142-29-20.917-29s-20.917,9.977-20.917,29C248.542,62.894,256.684,73.4,269.459,73.4Zm0-8.036c-6.7,0-11.68-6.01-11.68-21.384s4.983-20.966,11.68-20.966,11.68,5.591,11.68,20.966S276.156,65.366,269.459,65.366Zm0-15.428a5.974,5.974,0,0,0,6.062-6.348,6.067,6.067,0,1,0-12.125,0A5.975,5.975,0,0,0,269.459,49.937ZM326.9,73.4c12.775,0,20.917-10.507,20.917-29.42,0-19.025-8.142-29-20.917-29s-20.917,9.977-20.917,29C305.98,62.894,314.122,73.4,326.9,73.4Zm0-8.036c-6.7,0-11.68-6.01-11.68-21.384S320.2,23.016,326.9,23.016s11.68,5.591,11.68,20.966S333.594,65.366,326.9,65.366Zm0-15.428a5.974,5.974,0,0,0,6.062-6.348,6.067,6.067,0,1,0-12.125,0A5.975,5.975,0,0,0,326.9,49.937Zm38.689,22.4h39.592V64h-13.7V16.041h-7.554c-3.98,2.27-8.092,3.63-15.206,4.644v6.464h12.539V64H365.586V72.34ZM441.773,73.4c12.775,0,20.917-10.507,20.917-29.42,0-19.025-8.142-29-20.917-29s-20.917,9.977-20.917,29C420.856,62.894,429,73.4,441.773,73.4Zm0-8.036c-6.7,0-11.681-6.01-11.681-21.384s4.984-20.966,11.681-20.966,11.68,5.591,11.68,20.966S448.47,65.366,441.773,65.366Zm0-15.428a5.974,5.974,0,0,0,6.062-6.348,6.067,6.067,0,1,0-12.125,0A5.975,5.975,0,0,0,441.773,49.937Zm38.688,22.4h39.593V64h-13.7V16.041H498.8c-3.979,2.27-8.091,3.63-15.2,4.644v6.464h12.539V64H480.461V72.34ZM556.649,73.4c12.774,0,20.916-10.507,20.916-29.42,0-19.025-8.142-29-20.916-29s-20.917,9.977-20.917,29C535.732,62.894,543.874,73.4,556.649,73.4Zm0-8.036c-6.7,0-11.681-6.01-11.681-21.384s4.984-20.966,11.681-20.966,11.68,5.591,11.68,20.966S563.345,65.366,556.649,65.366Zm0-15.428a5.974,5.974,0,0,0,6.062-6.348,6.067,6.067,0,1,0-12.125,0A5.975,5.975,0,0,0,556.649,49.937Zm38.688,22.4h39.592V64H621.234V16.041h-7.555c-3.979,2.27-8.091,3.63-15.2,4.644v6.464h12.539V64H595.337V72.34Zm57.438,0h39.592V64H678.672V16.041h-7.555c-3.98,2.27-8.091,3.63-15.2,4.644v6.464h12.539V64H652.775V72.34ZM728.962,73.4c12.775,0,20.917-10.507,20.917-29.42,0-19.025-8.142-29-20.917-29s-20.917,9.977-20.917,29C708.045,62.894,716.187,73.4,728.962,73.4Zm0-8.036c-6.7,0-11.68-6.01-11.68-21.384s4.983-20.966,11.68-20.966,11.68,5.591,11.68,20.966S735.659,65.366,728.962,65.366Zm0-15.428a5.975,5.975,0,0,0,6.063-6.348,6.067,6.067,0,1,0-12.125,0A5.974,5.974,0,0,0,728.962,49.937Zm38.689,22.4h39.592V64h-13.7V16.041h-7.555c-3.98,2.27-8.092,3.63-15.205,4.644v6.464h12.539V64H767.651V72.34Zm57.438,0h39.592V64h-13.7V16.041h-7.554c-3.98,2.27-8.092,3.63-15.206,4.644v6.464h12.54V64H825.089V72.34Zm57.438,0h39.592V64h-13.7V16.041h-7.554c-3.98,2.27-8.092,3.63-15.206,4.644v6.464H898.2V64H882.527V72.34ZM958.714,73.4c12.775,0,20.917-10.507,20.917-29.42,0-19.025-8.142-29-20.917-29s-20.917,9.977-20.917,29C937.8,62.894,945.939,73.4,958.714,73.4Zm0-8.036c-6.7,0-11.68-6.01-11.68-21.384s4.983-20.966,11.68-20.966,11.68,5.591,11.68,20.966S965.411,65.366,958.714,65.366Zm0-15.428a5.974,5.974,0,0,0,6.062-6.348,6.067,6.067,0,1,0-12.125,0A5.975,5.975,0,0,0,958.714,49.937ZM997.4,72.34h39.587V64H1023.3V16.041h-7.56c-3.98,2.27-8.09,3.63-15.2,4.644v6.464h12.54V64H997.4V72.34ZM1073.59,73.4c12.77,0,20.92-10.507,20.92-29.42,0-19.025-8.15-29-20.92-29s-20.92,9.977-20.92,29C1052.67,62.894,1060.81,73.4,1073.59,73.4Zm0-8.036c-6.7,0-11.68-6.01-11.68-21.384s4.98-20.966,11.68-20.966,11.68,5.591,11.68,20.966S1080.29,65.366,1073.59,65.366Zm0-15.428a5.971,5.971,0,0,0,6.06-6.348,6.064,6.064,0,1,0-12.12,0A5.971,5.971,0,0,0,1073.59,49.937Zm38.69,22.4h39.59V64h-13.69V16.041h-7.56c-3.98,2.27-8.09,3.63-15.2,4.644v6.464h12.53V64h-15.67V72.34Zm76.19,1.061c12.77,0,20.91-10.507,20.91-29.42,0-19.025-8.14-29-20.91-29s-20.92,9.977-20.92,29C1167.55,62.894,1175.69,73.4,1188.47,73.4Zm0-8.036c-6.7,0-11.68-6.01-11.68-21.384s4.98-20.966,11.68-20.966,11.68,5.591,11.68,20.966S1195.16,65.366,1188.47,65.366Zm0-15.428a5.977,5.977,0,0,0,6.06-6.348,6.069,6.069,0,1,0-12.13,0A5.979,5.979,0,0,0,1188.47,49.937ZM1245.9,73.4c12.78,0,20.92-10.507,20.92-29.42,0-19.025-8.14-29-20.92-29s-20.91,9.977-20.91,29C1224.99,62.894,1233.13,73.4,1245.9,73.4Zm0-8.036c-6.69,0-11.68-6.01-11.68-21.384s4.99-20.966,11.68-20.966,11.68,5.591,11.68,20.966S1252.6,65.366,1245.9,65.366Zm0-15.428a5.979,5.979,0,0,0,6.07-6.348,6.069,6.069,0,1,0-12.13,0A5.977,5.977,0,0,0,1245.9,49.937Zm38.69,22.4h39.59V64h-13.69V16.041h-7.56c-3.98,2.27-8.09,3.63-15.2,4.644v6.464h12.54V64h-15.68V72.34Zm76.19,1.061c12.77,0,20.92-10.507,20.92-29.42,0-19.025-8.15-29-20.92-29s-20.92,9.977-20.92,29C1339.86,62.894,1348,73.4,1360.78,73.4Zm0-8.036c-6.7,0-11.68-6.01-11.68-21.384s4.98-20.966,11.68-20.966,11.68,5.591,11.68,20.966S1367.48,65.366,1360.78,65.366Zm0-15.428a5.971,5.971,0,0,0,6.06-6.348,6.064,6.064,0,1,0-12.12,0A5.971,5.971,0,0,0,1360.78,49.937Zm38.69,22.4h39.59V64h-13.7V16.041h-7.55c-3.98,2.27-8.09,3.63-15.21,4.644v6.464h12.54V64h-15.67V72.34Zm76.18,1.061c12.78,0,20.92-10.507,20.92-29.42,0-19.025-8.14-29-20.92-29s-20.91,9.977-20.91,29C1454.74,62.894,1462.88,73.4,1475.65,73.4Zm0-8.036c-6.69,0-11.68-6.01-11.68-21.384s4.99-20.966,11.68-20.966,11.69,5.591,11.69,20.966S1482.35,65.366,1475.65,65.366Zm0-15.428a5.979,5.979,0,0,0,6.07-6.348,6.069,6.069,0,1,0-12.13,0A5.977,5.977,0,0,0,1475.65,49.937Zm38.69,22.4h39.6V64h-13.7V16.041h-7.55c-3.98,2.27-8.1,3.63-15.21,4.644v6.464h12.54V64h-15.68V72.34Zm76.19,1.061c12.78,0,20.92-10.507,20.92-29.42,0-19.025-8.14-29-20.92-29s-20.92,9.977-20.92,29C1569.61,62.894,1577.76,73.4,1590.53,73.4Zm0-8.036c-6.7,0-11.68-6.01-11.68-21.384s4.98-20.966,11.68-20.966,11.68,5.591,11.68,20.966S1597.23,65.366,1590.53,65.366Zm0-15.428a5.971,5.971,0,0,0,6.06-6.348,6.064,6.064,0,1,0-12.12,0A5.971,5.971,0,0,0,1590.53,49.937Zm38.69,22.4h39.59V64h-13.69V16.041h-7.56c-3.98,2.27-8.09,3.63-15.2,4.644v6.464h12.53V64h-15.67V72.34Zm76.19,1.061c12.77,0,20.91-10.507,20.91-29.42,0-19.025-8.14-29-20.91-29s-20.92,9.977-20.92,29C1684.49,62.894,1692.63,73.4,1705.41,73.4Zm0-8.036c-6.7,0-11.68-6.01-11.68-21.384s4.98-20.966,11.68-20.966,11.68,5.591,11.68,20.966S1712.1,65.366,1705.41,65.366Zm0-15.428a5.977,5.977,0,0,0,6.06-6.348,6.069,6.069,0,1,0-12.13,0A5.979,5.979,0,0,0,1705.41,49.937Zm38.69,22.4h39.59V64h-13.7V16.041h-7.55c-3.98,2.27-8.09,3.63-15.21,4.644v6.464h12.54V64H1744.1V72.34Zm76.18,1.061c12.78,0,20.92-10.507,20.92-29.42,0-19.025-8.14-29-20.92-29s-20.91,9.977-20.91,29C1799.37,62.894,1807.51,73.4,1820.28,73.4Zm0-8.036c-6.69,0-11.68-6.01-11.68-21.384s4.99-20.966,11.68-20.966,11.68,5.591,11.68,20.966S1826.98,65.366,1820.28,65.366Zm0-15.428a5.971,5.971,0,0,0,6.06-6.348,6.064,6.064,0,1,0-12.12,0A5.971,5.971,0,0,0,1820.28,49.937ZM1877.72,73.4c12.78,0,20.92-10.507,20.92-29.42,0-19.025-8.14-29-20.92-29s-20.92,9.977-20.92,29C1856.8,62.894,1864.94,73.4,1877.72,73.4Zm0-8.036c-6.7,0-11.68-6.01-11.68-21.384s4.98-20.966,11.68-20.966,11.68,5.591,11.68,20.966S1884.42,65.366,1877.72,65.366Zm0-15.428a5.971,5.971,0,0,0,6.06-6.348,6.064,6.064,0,1,0-12.12,0A5.971,5.971,0,0,0,1877.72,49.937ZM20.958,178.478H60.55v-8.343h-13.7V122.179H39.3c-3.98,2.27-8.092,3.63-15.205,4.644v6.464H36.634v36.848H20.958v8.343Zm76.187,1.062c12.775,0,20.917-10.508,20.917-29.421,0-19.025-8.142-29-20.917-29s-20.917,9.976-20.917,29C76.228,169.032,84.37,179.54,97.145,179.54Zm0-8.037c-6.7,0-11.68-6.01-11.68-21.384s4.983-20.965,11.68-20.965,11.68,5.591,11.68,20.965S103.842,171.5,97.145,171.5Zm0-15.428a6.325,6.325,0,1,0-6.062-6.348A5.974,5.974,0,0,0,97.145,156.075Zm57.438,23.465c12.775,0,20.917-10.508,20.917-29.421,0-19.025-8.142-29-20.917-29s-20.917,9.976-20.917,29C133.666,169.032,141.808,179.54,154.583,179.54Zm0-8.037c-6.7,0-11.68-6.01-11.68-21.384s4.983-20.965,11.68-20.965,11.68,5.591,11.68,20.965S161.28,171.5,154.583,171.5Zm0-15.428a6.325,6.325,0,1,0-6.062-6.348A5.974,5.974,0,0,0,154.583,156.075Zm38.689,22.4h39.592v-8.343h-13.7V122.179h-7.554c-3.98,2.27-8.092,3.63-15.206,4.644v6.464h12.539v36.848H193.272v8.343Zm76.187,1.062c12.775,0,20.917-10.508,20.917-29.421,0-19.025-8.142-29-20.917-29s-20.917,9.976-20.917,29C248.542,169.032,256.684,179.54,269.459,179.54Zm0-8.037c-6.7,0-11.68-6.01-11.68-21.384s4.983-20.965,11.68-20.965,11.68,5.591,11.68,20.965S276.156,171.5,269.459,171.5Zm0-15.428a6.325,6.325,0,1,0-6.063-6.348A5.974,5.974,0,0,0,269.459,156.075ZM326.9,179.54c12.775,0,20.917-10.508,20.917-29.421,0-19.025-8.142-29-20.917-29s-20.917,9.976-20.917,29C305.98,169.032,314.122,179.54,326.9,179.54Zm0-8.037c-6.7,0-11.68-6.01-11.68-21.384s4.983-20.965,11.68-20.965,11.68,5.591,11.68,20.965S333.594,171.5,326.9,171.5Zm0-15.428a6.325,6.325,0,1,0-6.063-6.348A5.974,5.974,0,0,0,326.9,156.075Zm38.689,22.4h39.592v-8.343h-13.7V122.179h-7.554c-3.98,2.27-8.092,3.63-15.206,4.644v6.464h12.539v36.848H365.586v8.343Zm76.187,1.062c12.775,0,20.917-10.508,20.917-29.421,0-19.025-8.142-29-20.917-29s-20.917,9.976-20.917,29C420.856,169.032,429,179.54,441.773,179.54Zm0-8.037c-6.7,0-11.681-6.01-11.681-21.384s4.984-20.965,11.681-20.965,11.68,5.591,11.68,20.965S448.47,171.5,441.773,171.5Zm0-15.428a6.325,6.325,0,1,0-6.063-6.348A5.974,5.974,0,0,0,441.773,156.075Zm38.688,22.4h39.593v-8.343h-13.7V122.179H498.8c-3.979,2.27-8.091,3.63-15.2,4.644v6.464h12.539v36.848H480.461v8.343Zm76.188,1.062c12.774,0,20.916-10.508,20.916-29.421,0-19.025-8.142-29-20.916-29s-20.917,9.976-20.917,29C535.732,169.032,543.874,179.54,556.649,179.54Zm0-8.037c-6.7,0-11.681-6.01-11.681-21.384s4.984-20.965,11.681-20.965,11.68,5.591,11.68,20.965S563.345,171.5,556.649,171.5Zm0-15.428a6.325,6.325,0,1,0-6.063-6.348A5.974,5.974,0,0,0,556.649,156.075Zm57.437,23.465c12.775,0,20.917-10.508,20.917-29.421,0-19.025-8.142-29-20.917-29s-20.917,9.976-20.917,29C593.169,169.032,601.311,179.54,614.086,179.54Zm0-8.037c-6.7,0-11.68-6.01-11.68-21.384s4.983-20.965,11.68-20.965,11.681,5.591,11.681,20.965S620.783,171.5,614.086,171.5Zm0-15.428a6.325,6.325,0,1,0-6.062-6.348A5.974,5.974,0,0,0,614.086,156.075Zm38.689,22.4h39.592v-8.343H678.672V122.179h-7.555c-3.98,2.27-8.091,3.63-15.2,4.644v6.464h12.539v36.848H652.775v8.343Zm76.187,1.062c12.775,0,20.917-10.508,20.917-29.421,0-19.025-8.142-29-20.917-29s-20.917,9.976-20.917,29C708.045,169.032,716.187,179.54,728.962,179.54Zm0-8.037c-6.7,0-11.68-6.01-11.68-21.384s4.983-20.965,11.68-20.965,11.68,5.591,11.68,20.965S735.659,171.5,728.962,171.5Zm0-15.428a6.325,6.325,0,1,0-6.062-6.348A5.974,5.974,0,0,0,728.962,156.075Zm38.689,22.4h39.592v-8.343h-13.7V122.179h-7.555c-3.98,2.27-8.092,3.63-15.205,4.644v6.464h12.539v36.848H767.651v8.343Zm76.187,1.062c12.775,0,20.917-10.508,20.917-29.421,0-19.025-8.142-29-20.917-29s-20.917,9.976-20.917,29C822.921,169.032,831.063,179.54,843.838,179.54Zm0-8.037c-6.7,0-11.68-6.01-11.68-21.384s4.983-20.965,11.68-20.965,11.68,5.591,11.68,20.965S850.535,171.5,843.838,171.5Zm0-15.428a6.325,6.325,0,1,0-6.062-6.348A5.974,5.974,0,0,0,843.838,156.075Zm38.689,22.4h39.592v-8.343h-13.7V122.179h-7.554c-3.98,2.27-8.092,3.63-15.206,4.644v6.464H898.2v36.848H882.527v8.343Zm76.187,1.062c12.775,0,20.917-10.508,20.917-29.421,0-19.025-8.142-29-20.917-29s-20.917,9.976-20.917,29C937.8,169.032,945.939,179.54,958.714,179.54Zm0-8.037c-6.7,0-11.68-6.01-11.68-21.384s4.983-20.965,11.68-20.965,11.68,5.591,11.68,20.965S965.411,171.5,958.714,171.5Zm0-15.428a6.325,6.325,0,1,0-6.063-6.348A5.974,5.974,0,0,0,958.714,156.075Zm57.436,23.465c12.78,0,20.92-10.508,20.92-29.421,0-19.025-8.14-29-20.92-29s-20.915,9.976-20.915,29C995.235,169.032,1003.38,179.54,1016.15,179.54Zm0-8.037c-6.7,0-11.68-6.01-11.68-21.384s4.98-20.965,11.68-20.965,11.68,5.591,11.68,20.965S1022.85,171.5,1016.15,171.5Zm0-15.428a6.326,6.326,0,1,0-6.06-6.348A5.971,5.971,0,0,0,1016.15,156.075Zm38.69,22.4h39.59v-8.343h-13.69V122.179h-7.56c-3.98,2.27-8.09,3.63-15.2,4.644v6.464h12.54v36.848h-15.68v8.343Zm76.19,1.062c12.77,0,20.91-10.508,20.91-29.421,0-19.025-8.14-29-20.91-29s-20.92,9.976-20.92,29C1110.11,169.032,1118.25,179.54,1131.03,179.54Zm0-8.037c-6.7,0-11.68-6.01-11.68-21.384s4.98-20.965,11.68-20.965,11.68,5.591,11.68,20.965S1137.72,171.5,1131.03,171.5Zm0-15.428a6.326,6.326,0,1,0-6.06-6.348A5.971,5.971,0,0,0,1131.03,156.075Zm38.69,22.4h39.59v-8.343h-13.7V122.179h-7.55c-3.98,2.27-8.09,3.63-15.21,4.644v6.464h12.54v36.848h-15.67v8.343Zm76.18,1.062c12.78,0,20.92-10.508,20.92-29.421,0-19.025-8.14-29-20.92-29s-20.91,9.976-20.91,29C1224.99,169.032,1233.13,179.54,1245.9,179.54Zm0-8.037c-6.69,0-11.68-6.01-11.68-21.384s4.99-20.965,11.68-20.965,11.68,5.591,11.68,20.965S1252.6,171.5,1245.9,171.5Zm0-15.428a6.326,6.326,0,1,0-6.06-6.348A5.979,5.979,0,0,0,1245.9,156.075Zm38.69,22.4h39.59v-8.343h-13.69V122.179h-7.56c-3.98,2.27-8.09,3.63-15.2,4.644v6.464h12.54v36.848h-15.68v8.343Zm76.19,1.062c12.77,0,20.92-10.508,20.92-29.421,0-19.025-8.15-29-20.92-29s-20.92,9.976-20.92,29C1339.86,169.032,1348,179.54,1360.78,179.54Zm0-8.037c-6.7,0-11.68-6.01-11.68-21.384s4.98-20.965,11.68-20.965,11.68,5.591,11.68,20.965S1367.48,171.5,1360.78,171.5Zm0-15.428a6.326,6.326,0,1,0-6.06-6.348A5.971,5.971,0,0,0,1360.78,156.075Zm57.44,23.465c12.77,0,20.91-10.508,20.91-29.421,0-19.025-8.14-29-20.91-29s-20.92,9.976-20.92,29C1397.3,169.032,1405.44,179.54,1418.22,179.54Zm0-8.037c-6.7,0-11.68-6.01-11.68-21.384s4.98-20.965,11.68-20.965,11.68,5.591,11.68,20.965S1424.91,171.5,1418.22,171.5Zm0-15.428a6.325,6.325,0,1,0-6.07-6.348A5.976,5.976,0,0,0,1418.22,156.075Zm38.69,22.4h39.59v-8.343h-13.7V122.179h-7.55c-3.98,2.27-8.09,3.63-15.21,4.644v6.464h12.54v36.848h-15.67v8.343Zm76.18,1.062c12.78,0,20.92-10.508,20.92-29.421,0-19.025-8.14-29-20.92-29s-20.91,9.976-20.91,29C1512.18,169.032,1520.32,179.54,1533.09,179.54Zm0-8.037c-6.69,0-11.68-6.01-11.68-21.384s4.99-20.965,11.68-20.965,11.68,5.591,11.68,20.965S1539.79,171.5,1533.09,171.5Zm0-15.428a6.326,6.326,0,1,0-6.06-6.348A5.979,5.979,0,0,0,1533.09,156.075Zm38.69,22.4h39.59v-8.343h-13.69V122.179h-7.56c-3.98,2.27-8.09,3.63-15.2,4.644v6.464h12.54v36.848h-15.68v8.343Zm76.19,1.062c12.77,0,20.92-10.508,20.92-29.421,0-19.025-8.15-29-20.92-29s-20.92,9.976-20.92,29C1627.05,169.032,1635.19,179.54,1647.97,179.54Zm0-8.037c-6.7,0-11.68-6.01-11.68-21.384s4.98-20.965,11.68-20.965,11.68,5.591,11.68,20.965S1654.67,171.5,1647.97,171.5Zm0-15.428a6.326,6.326,0,1,0-6.06-6.348A5.971,5.971,0,0,0,1647.97,156.075Zm38.69,22.4h39.59v-8.343h-13.7V122.179H1705c-3.98,2.27-8.09,3.63-15.21,4.644v6.464h12.54v36.848h-15.67v8.343Zm76.18,1.062c12.78,0,20.92-10.508,20.92-29.421,0-19.025-8.14-29-20.92-29s-20.91,9.976-20.91,29C1741.93,169.032,1750.07,179.54,1762.84,179.54Zm0-8.037c-6.69,0-11.68-6.01-11.68-21.384s4.99-20.965,11.68-20.965,11.68,5.591,11.68,20.965S1769.54,171.5,1762.84,171.5Zm0-15.428a6.326,6.326,0,1,0-6.06-6.348A5.979,5.979,0,0,0,1762.84,156.075Zm57.44,23.465c12.78,0,20.92-10.508,20.92-29.421,0-19.025-8.14-29-20.92-29s-20.91,9.976-20.91,29C1799.37,169.032,1807.51,179.54,1820.28,179.54Zm0-8.037c-6.69,0-11.68-6.01-11.68-21.384s4.99-20.965,11.68-20.965,11.68,5.591,11.68,20.965S1826.98,171.5,1820.28,171.5Zm0-15.428a6.326,6.326,0,1,0-6.06-6.348A5.971,5.971,0,0,0,1820.28,156.075Zm38.69,22.4h39.59v-8.343h-13.69V122.179h-7.56c-3.98,2.27-8.09,3.63-15.2,4.644v6.464h12.54v36.848h-15.68v8.343ZM39.707,285.677c12.775,0,20.917-10.507,20.917-29.42,0-19.025-8.142-29-20.917-29s-20.917,9.977-20.917,29C18.79,275.17,26.932,285.677,39.707,285.677Zm0-8.036c-6.7,0-11.68-6.01-11.68-21.384s4.983-20.966,11.68-20.966,11.68,5.592,11.68,20.966S46.4,277.641,39.707,277.641Zm0-15.428a6.325,6.325,0,1,0-6.062-6.348A5.974,5.974,0,0,0,39.707,262.213Zm57.438,23.464c12.775,0,20.917-10.507,20.917-29.42,0-19.025-8.142-29-20.917-29s-20.917,9.977-20.917,29C76.228,275.17,84.37,285.677,97.145,285.677Zm0-8.036c-6.7,0-11.68-6.01-11.68-21.384s4.983-20.966,11.68-20.966,11.68,5.592,11.68,20.966S103.842,277.641,97.145,277.641Zm0-15.428a6.325,6.325,0,1,0-6.062-6.348A5.974,5.974,0,0,0,97.145,262.213Zm38.689,22.4h39.592v-8.343h-13.7V228.317h-7.554c-3.98,2.27-8.092,3.629-15.206,4.644v6.464h12.539v36.848H135.834v8.343Zm76.187,1.061c12.775,0,20.917-10.507,20.917-29.42,0-19.025-8.142-29-20.917-29s-20.917,9.977-20.917,29C191.1,275.17,199.246,285.677,212.021,285.677Zm0-8.036c-6.7,0-11.68-6.01-11.68-21.384s4.983-20.966,11.68-20.966,11.68,5.592,11.68,20.966S218.718,277.641,212.021,277.641Zm0-15.428a6.325,6.325,0,1,0-6.063-6.348A5.974,5.974,0,0,0,212.021,262.213Zm38.689,22.4H290.3v-8.343h-13.7V228.317h-7.554c-3.98,2.27-8.092,3.629-15.206,4.644v6.464h12.539v36.848H250.71v8.343Zm76.187,1.061c12.775,0,20.917-10.507,20.917-29.42,0-19.025-8.142-29-20.917-29s-20.917,9.977-20.917,29C305.98,275.17,314.122,285.677,326.9,285.677Zm0-8.036c-6.7,0-11.68-6.01-11.68-21.384s4.983-20.966,11.68-20.966,11.68,5.592,11.68,20.966S333.594,277.641,326.9,277.641Zm0-15.428a6.325,6.325,0,1,0-6.063-6.348A5.974,5.974,0,0,0,326.9,262.213Zm38.689,22.4h39.592v-8.343h-13.7V228.317h-7.554c-3.98,2.27-8.092,3.629-15.206,4.644v6.464h12.539v36.848H365.586v8.343Zm76.187,1.061c12.775,0,20.917-10.507,20.917-29.42,0-19.025-8.142-29-20.917-29s-20.917,9.977-20.917,29C420.856,275.17,429,285.677,441.773,285.677Zm0-8.036c-6.7,0-11.681-6.01-11.681-21.384s4.984-20.966,11.681-20.966,11.68,5.592,11.68,20.966S448.47,277.641,441.773,277.641Zm0-15.428a6.325,6.325,0,1,0-6.063-6.348A5.974,5.974,0,0,0,441.773,262.213Zm57.438,23.464c12.775,0,20.916-10.507,20.916-29.42,0-19.025-8.141-29-20.916-29s-20.917,9.977-20.917,29C478.294,275.17,486.436,285.677,499.211,285.677Zm0-8.036c-6.7,0-11.681-6.01-11.681-21.384s4.984-20.966,11.681-20.966,11.68,5.592,11.68,20.966S505.908,277.641,499.211,277.641Zm0-15.428a6.325,6.325,0,1,0-6.063-6.348A5.974,5.974,0,0,0,499.211,262.213Zm38.688,22.4h39.593v-8.343H563.8V228.317h-7.555c-3.979,2.27-8.091,3.629-15.205,4.644v6.464h12.539v36.848H537.9v8.343Zm76.187,1.061c12.775,0,20.917-10.507,20.917-29.42,0-19.025-8.142-29-20.917-29s-20.917,9.977-20.917,29C593.169,275.17,601.311,285.677,614.086,285.677Zm0-8.036c-6.7,0-11.68-6.01-11.68-21.384s4.983-20.966,11.68-20.966,11.681,5.592,11.681,20.966S620.783,277.641,614.086,277.641Zm0-15.428a6.325,6.325,0,1,0-6.062-6.348A5.974,5.974,0,0,0,614.086,262.213Zm57.438,23.464c12.775,0,20.917-10.507,20.917-29.42,0-19.025-8.142-29-20.917-29s-20.917,9.977-20.917,29C650.607,275.17,658.749,285.677,671.524,285.677Zm0-8.036c-6.7,0-11.68-6.01-11.68-21.384s4.983-20.966,11.68-20.966,11.681,5.592,11.681,20.966S678.221,277.641,671.524,277.641Zm0-15.428a6.325,6.325,0,1,0-6.062-6.348A5.974,5.974,0,0,0,671.524,262.213Zm38.689,22.4h39.592v-8.343H736.11V228.317h-7.555c-3.98,2.27-8.091,3.629-15.2,4.644v6.464h12.539v36.848H710.213v8.343Zm76.187,1.061c12.775,0,20.917-10.507,20.917-29.42,0-19.025-8.142-29-20.917-29s-20.917,9.977-20.917,29C765.483,275.17,773.625,285.677,786.4,285.677Zm0-8.036c-6.7,0-11.68-6.01-11.68-21.384s4.983-20.966,11.68-20.966,11.68,5.592,11.68,20.966S793.1,277.641,786.4,277.641Zm0-15.428a6.325,6.325,0,1,0-6.062-6.348A5.974,5.974,0,0,0,786.4,262.213Zm38.689,22.4h39.592v-8.343h-13.7V228.317h-7.554c-3.98,2.27-8.092,3.629-15.206,4.644v6.464h12.54v36.848H825.089v8.343Zm76.187,1.061c12.775,0,20.917-10.507,20.917-29.42,0-19.025-8.142-29-20.917-29s-20.917,9.977-20.917,29C880.359,275.17,888.5,285.677,901.276,285.677Zm0-8.036c-6.7,0-11.68-6.01-11.68-21.384s4.983-20.966,11.68-20.966,11.68,5.592,11.68,20.966S907.973,277.641,901.276,277.641Zm0-15.428a6.325,6.325,0,1,0-6.062-6.348A5.974,5.974,0,0,0,901.276,262.213Zm57.438,23.464c12.775,0,20.917-10.507,20.917-29.42,0-19.025-8.142-29-20.917-29s-20.917,9.977-20.917,29C937.8,275.17,945.939,285.677,958.714,285.677Zm0-8.036c-6.7,0-11.68-6.01-11.68-21.384s4.983-20.966,11.68-20.966,11.68,5.592,11.68,20.966S965.411,277.641,958.714,277.641Zm0-15.428a6.325,6.325,0,1,0-6.063-6.348A5.974,5.974,0,0,0,958.714,262.213Zm57.436,23.464c12.78,0,20.92-10.507,20.92-29.42,0-19.025-8.14-29-20.92-29s-20.915,9.977-20.915,29C995.235,275.17,1003.38,285.677,1016.15,285.677Zm0-8.036c-6.7,0-11.68-6.01-11.68-21.384s4.98-20.966,11.68-20.966,11.68,5.592,11.68,20.966S1022.85,277.641,1016.15,277.641Zm0-15.428a6.326,6.326,0,1,0-6.06-6.348A5.971,5.971,0,0,0,1016.15,262.213Zm38.69,22.4h39.59v-8.343h-13.69V228.317h-7.56c-3.98,2.27-8.09,3.629-15.2,4.644v6.464h12.54v36.848h-15.68v8.343Zm76.19,1.061c12.77,0,20.91-10.507,20.91-29.42,0-19.025-8.14-29-20.91-29s-20.92,9.977-20.92,29C1110.11,275.17,1118.25,285.677,1131.03,285.677Zm0-8.036c-6.7,0-11.68-6.01-11.68-21.384s4.98-20.966,11.68-20.966,11.68,5.592,11.68,20.966S1137.72,277.641,1131.03,277.641Zm0-15.428a6.326,6.326,0,1,0-6.06-6.348A5.971,5.971,0,0,0,1131.03,262.213Zm38.69,22.4h39.59v-8.343h-13.7V228.317h-7.55c-3.98,2.27-8.09,3.629-15.21,4.644v6.464h12.54v36.848h-15.67v8.343Zm76.18,1.061c12.78,0,20.92-10.507,20.92-29.42,0-19.025-8.14-29-20.92-29s-20.91,9.977-20.91,29C1224.99,275.17,1233.13,285.677,1245.9,285.677Zm0-8.036c-6.69,0-11.68-6.01-11.68-21.384s4.99-20.966,11.68-20.966,11.68,5.592,11.68,20.966S1252.6,277.641,1245.9,277.641Zm0-15.428a6.326,6.326,0,1,0-6.06-6.348A5.979,5.979,0,0,0,1245.9,262.213Zm57.44,23.464c12.78,0,20.92-10.507,20.92-29.42,0-19.025-8.14-29-20.92-29s-20.92,9.977-20.92,29C1282.42,275.17,1290.57,285.677,1303.34,285.677Zm0-8.036c-6.7,0-11.68-6.01-11.68-21.384s4.98-20.966,11.68-20.966,11.68,5.592,11.68,20.966S1310.04,277.641,1303.34,277.641Zm0-15.428a6.326,6.326,0,1,0-6.06-6.348A5.971,5.971,0,0,0,1303.34,262.213Zm38.69,22.4h39.59v-8.343h-13.69V228.317h-7.56c-3.98,2.27-8.09,3.629-15.2,4.644v6.464h12.54v36.848h-15.68v8.343Zm76.19,1.061c12.77,0,20.91-10.507,20.91-29.42,0-19.025-8.14-29-20.91-29s-20.92,9.977-20.92,29C1397.3,275.17,1405.44,285.677,1418.22,285.677Zm0-8.036c-6.7,0-11.68-6.01-11.68-21.384s4.98-20.966,11.68-20.966,11.68,5.592,11.68,20.966S1424.91,277.641,1418.22,277.641Zm0-15.428a6.325,6.325,0,1,0-6.07-6.348A5.976,5.976,0,0,0,1418.22,262.213Zm38.69,22.4h39.59v-8.343h-13.7V228.317h-7.55c-3.98,2.27-8.09,3.629-15.21,4.644v6.464h12.54v36.848h-15.67v8.343Zm76.18,1.061c12.78,0,20.92-10.507,20.92-29.42,0-19.025-8.14-29-20.92-29s-20.91,9.977-20.91,29C1512.18,275.17,1520.32,285.677,1533.09,285.677Zm0-8.036c-6.69,0-11.68-6.01-11.68-21.384s4.99-20.966,11.68-20.966,11.68,5.592,11.68,20.966S1539.79,277.641,1533.09,277.641Zm0-15.428a6.326,6.326,0,1,0-6.06-6.348A5.979,5.979,0,0,0,1533.09,262.213Zm38.69,22.4h39.59v-8.343h-13.69V228.317h-7.56c-3.98,2.27-8.09,3.629-15.2,4.644v6.464h12.54v36.848h-15.68v8.343Zm76.19,1.061c12.77,0,20.92-10.507,20.92-29.42,0-19.025-8.15-29-20.92-29s-20.92,9.977-20.92,29C1627.05,275.17,1635.19,285.677,1647.97,285.677Zm0-8.036c-6.7,0-11.68-6.01-11.68-21.384s4.98-20.966,11.68-20.966,11.68,5.592,11.68,20.966S1654.67,277.641,1647.97,277.641Zm0-15.428a6.326,6.326,0,1,0-6.06-6.348A5.971,5.971,0,0,0,1647.97,262.213Zm38.69,22.4h39.59v-8.343h-13.7V228.317H1705c-3.98,2.27-8.09,3.629-15.21,4.644v6.464h12.54v36.848h-15.67v8.343Zm76.18,1.061c12.78,0,20.92-10.507,20.92-29.42,0-19.025-8.14-29-20.92-29s-20.91,9.977-20.91,29C1741.93,275.17,1750.07,285.677,1762.84,285.677Zm0-8.036c-6.69,0-11.68-6.01-11.68-21.384s4.99-20.966,11.68-20.966,11.68,5.592,11.68,20.966S1769.54,277.641,1762.84,277.641Zm0-15.428a6.326,6.326,0,1,0-6.06-6.348A5.979,5.979,0,0,0,1762.84,262.213Zm38.69,22.4h39.6v-8.343h-13.7V228.317h-7.55c-3.98,2.27-8.1,3.629-15.21,4.644v6.464h12.54v36.848h-15.68v8.343Zm76.19,1.061c12.78,0,20.92-10.507,20.92-29.42,0-19.025-8.14-29-20.92-29s-20.92,9.977-20.92,29C1856.8,275.17,1864.94,285.677,1877.72,285.677Zm0-8.036c-6.7,0-11.68-6.01-11.68-21.384s4.98-20.966,11.68-20.966,11.68,5.592,11.68,20.966S1884.42,277.641,1877.72,277.641Zm0-15.428a6.326,6.326,0,1,0-6.06-6.348A5.971,5.971,0,0,0,1877.72,262.213ZM20.958,390.754H60.55v-8.343h-13.7V334.455H39.3c-3.98,2.27-8.092,3.629-15.205,4.644v6.464H36.634v36.848H20.958v8.343Zm57.438,0h39.592v-8.343h-13.7V334.455H96.738c-3.98,2.27-8.092,3.629-15.206,4.644v6.464H94.072v36.848H78.4v8.343Zm76.187,1.061c12.775,0,20.917-10.507,20.917-29.42,0-19.025-8.142-29-20.917-29s-20.917,9.977-20.917,29C133.666,381.308,141.808,391.815,154.583,391.815Zm0-8.036c-6.7,0-11.68-6.01-11.68-21.384s4.983-20.966,11.68-20.966,11.68,5.592,11.68,20.966S161.28,383.779,154.583,383.779Zm0-15.428A6.325,6.325,0,1,0,148.521,362,5.974,5.974,0,0,0,154.583,368.351Zm38.689,22.4h39.592v-8.343h-13.7V334.455h-7.554c-3.98,2.27-8.092,3.629-15.206,4.644v6.464h12.539v36.848H193.272v8.343Zm76.187,1.061c12.775,0,20.917-10.507,20.917-29.42,0-19.025-8.142-29-20.917-29s-20.917,9.977-20.917,29C248.542,381.308,256.684,391.815,269.459,391.815Zm0-8.036c-6.7,0-11.68-6.01-11.68-21.384s4.983-20.966,11.68-20.966,11.68,5.592,11.68,20.966S276.156,383.779,269.459,383.779Zm0-15.428A6.325,6.325,0,1,0,263.4,362,5.974,5.974,0,0,0,269.459,368.351Zm38.689,22.4H347.74v-8.343h-13.7V334.455H326.49c-3.98,2.27-8.092,3.629-15.206,4.644v6.464h12.539v36.848H308.148v8.343Zm57.438,0h39.592v-8.343h-13.7V334.455h-7.554c-3.98,2.27-8.092,3.629-15.206,4.644v6.464h12.539v36.848H365.586v8.343Zm57.438,0h39.592v-8.343h-13.7V334.455h-7.554c-3.98,2.27-8.092,3.629-15.206,4.644v6.464H438.7v36.848H423.024v8.343Zm76.187,1.061c12.775,0,20.916-10.507,20.916-29.42,0-19.025-8.141-29-20.916-29s-20.917,9.977-20.917,29C478.294,381.308,486.436,391.815,499.211,391.815Zm0-8.036c-6.7,0-11.681-6.01-11.681-21.384s4.984-20.966,11.681-20.966,11.68,5.592,11.68,20.966S505.908,383.779,499.211,383.779Zm0-15.428A6.325,6.325,0,1,0,493.148,362,5.974,5.974,0,0,0,499.211,368.351Zm57.438,23.464c12.774,0,20.916-10.507,20.916-29.42,0-19.025-8.142-29-20.916-29s-20.917,9.977-20.917,29C535.732,381.308,543.874,391.815,556.649,391.815Zm0-8.036c-6.7,0-11.681-6.01-11.681-21.384s4.984-20.966,11.681-20.966,11.68,5.592,11.68,20.966S563.345,383.779,556.649,383.779Zm0-15.428A6.325,6.325,0,1,0,550.586,362,5.974,5.974,0,0,0,556.649,368.351Zm57.437,23.464c12.775,0,20.917-10.507,20.917-29.42,0-19.025-8.142-29-20.917-29s-20.917,9.977-20.917,29C593.169,381.308,601.311,391.815,614.086,391.815Zm0-8.036c-6.7,0-11.68-6.01-11.68-21.384s4.983-20.966,11.68-20.966,11.681,5.592,11.681,20.966S620.783,383.779,614.086,383.779Zm0-15.428A6.325,6.325,0,1,0,608.024,362,5.974,5.974,0,0,0,614.086,368.351Zm38.689,22.4h39.592v-8.343H678.672V334.455h-7.555c-3.98,2.27-8.091,3.629-15.2,4.644v6.464h12.539v36.848H652.775v8.343Zm57.438,0h39.592v-8.343H736.11V334.455h-7.555c-3.98,2.27-8.091,3.629-15.2,4.644v6.464h12.539v36.848H710.213v8.343Zm57.438,0h39.592v-8.343h-13.7V334.455h-7.555c-3.98,2.27-8.092,3.629-15.205,4.644v6.464h12.539v36.848H767.651v8.343Zm76.187,1.061c12.775,0,20.917-10.507,20.917-29.42,0-19.025-8.142-29-20.917-29s-20.917,9.977-20.917,29C822.921,381.308,831.063,391.815,843.838,391.815Zm0-8.036c-6.7,0-11.68-6.01-11.68-21.384s4.983-20.966,11.68-20.966,11.68,5.592,11.68,20.966S850.535,383.779,843.838,383.779Zm0-15.428A6.325,6.325,0,1,0,837.776,362,5.974,5.974,0,0,0,843.838,368.351Zm57.438,23.464c12.775,0,20.917-10.507,20.917-29.42,0-19.025-8.142-29-20.917-29s-20.917,9.977-20.917,29C880.359,381.308,888.5,391.815,901.276,391.815Zm0-8.036c-6.7,0-11.68-6.01-11.68-21.384s4.983-20.966,11.68-20.966,11.68,5.592,11.68,20.966S907.973,383.779,901.276,383.779Zm0-15.428A6.325,6.325,0,1,0,895.214,362,5.974,5.974,0,0,0,901.276,368.351Zm57.438,23.464c12.775,0,20.917-10.507,20.917-29.42,0-19.025-8.142-29-20.917-29s-20.917,9.977-20.917,29C937.8,381.308,945.939,391.815,958.714,391.815Zm0-8.036c-6.7,0-11.68-6.01-11.68-21.384s4.983-20.966,11.68-20.966,11.68,5.592,11.68,20.966S965.411,383.779,958.714,383.779Zm0-15.428A6.325,6.325,0,1,0,952.651,362,5.974,5.974,0,0,0,958.714,368.351Zm38.689,22.4h39.587v-8.343H1023.3V334.455h-7.56c-3.98,2.27-8.09,3.629-15.2,4.644v6.464h12.54v36.848H997.4v8.343Zm76.187,1.061c12.77,0,20.92-10.507,20.92-29.42,0-19.025-8.15-29-20.92-29s-20.92,9.977-20.92,29C1052.67,381.308,1060.81,391.815,1073.59,391.815Zm0-8.036c-6.7,0-11.68-6.01-11.68-21.384s4.98-20.966,11.68-20.966,11.68,5.592,11.68,20.966S1080.29,383.779,1073.59,383.779Zm0-15.428a6.326,6.326,0,1,0-6.06-6.348A5.971,5.971,0,0,0,1073.59,368.351Zm38.69,22.4h39.59v-8.343h-13.69V334.455h-7.56c-3.98,2.27-8.09,3.629-15.2,4.644v6.464h12.53v36.848h-15.67v8.343Zm76.19,1.061c12.77,0,20.91-10.507,20.91-29.42,0-19.025-8.14-29-20.91-29s-20.92,9.977-20.92,29C1167.55,381.308,1175.69,391.815,1188.47,391.815Zm0-8.036c-6.7,0-11.68-6.01-11.68-21.384s4.98-20.966,11.68-20.966,11.68,5.592,11.68,20.966S1195.16,383.779,1188.47,383.779Zm0-15.428A6.325,6.325,0,1,0,1182.4,362,5.976,5.976,0,0,0,1188.47,368.351Zm38.68,22.4h39.6v-8.343h-13.7V334.455h-7.55c-3.98,2.27-8.1,3.629-15.21,4.644v6.464h12.54v36.848h-15.68v8.343Zm76.19,1.061c12.78,0,20.92-10.507,20.92-29.42,0-19.025-8.14-29-20.92-29s-20.92,9.977-20.92,29C1282.42,381.308,1290.57,391.815,1303.34,391.815Zm0-8.036c-6.7,0-11.68-6.01-11.68-21.384s4.98-20.966,11.68-20.966,11.68,5.592,11.68,20.966S1310.04,383.779,1303.34,383.779Zm0-15.428a6.326,6.326,0,1,0-6.06-6.348A5.971,5.971,0,0,0,1303.34,368.351Zm38.69,22.4h39.59v-8.343h-13.69V334.455h-7.56c-3.98,2.27-8.09,3.629-15.2,4.644v6.464h12.54v36.848h-15.68v8.343Zm57.44,0h39.59v-8.343h-13.7V334.455h-7.55c-3.98,2.27-8.09,3.629-15.21,4.644v6.464h12.54v36.848h-15.67v8.343Zm76.18,1.061c12.78,0,20.92-10.507,20.92-29.42,0-19.025-8.14-29-20.92-29s-20.91,9.977-20.91,29C1454.74,381.308,1462.88,391.815,1475.65,391.815Zm0-8.036c-6.69,0-11.68-6.01-11.68-21.384s4.99-20.966,11.68-20.966,11.69,5.592,11.69,20.966S1482.35,383.779,1475.65,383.779Zm0-15.428a6.326,6.326,0,1,0-6.06-6.348A5.979,5.979,0,0,0,1475.65,368.351Zm38.69,22.4h39.6v-8.343h-13.7V334.455h-7.55c-3.98,2.27-8.1,3.629-15.21,4.644v6.464h12.54v36.848h-15.68v8.343Zm76.19,1.061c12.78,0,20.92-10.507,20.92-29.42,0-19.025-8.14-29-20.92-29s-20.92,9.977-20.92,29C1569.61,381.308,1577.76,391.815,1590.53,391.815Zm0-8.036c-6.7,0-11.68-6.01-11.68-21.384s4.98-20.966,11.68-20.966,11.68,5.592,11.68,20.966S1597.23,383.779,1590.53,383.779Zm0-15.428a6.326,6.326,0,1,0-6.06-6.348A5.971,5.971,0,0,0,1590.53,368.351Zm57.44,23.464c12.77,0,20.92-10.507,20.92-29.42,0-19.025-8.15-29-20.92-29s-20.92,9.977-20.92,29C1627.05,381.308,1635.19,391.815,1647.97,391.815Zm0-8.036c-6.7,0-11.68-6.01-11.68-21.384s4.98-20.966,11.68-20.966,11.68,5.592,11.68,20.966S1654.67,383.779,1647.97,383.779Zm0-15.428a6.326,6.326,0,1,0-6.06-6.348A5.971,5.971,0,0,0,1647.97,368.351Zm38.69,22.4h39.59v-8.343h-13.7V334.455H1705c-3.98,2.27-8.09,3.629-15.21,4.644v6.464h12.54v36.848h-15.67v8.343Zm76.18,1.061c12.78,0,20.92-10.507,20.92-29.42,0-19.025-8.14-29-20.92-29s-20.91,9.977-20.91,29C1741.93,381.308,1750.07,391.815,1762.84,391.815Zm0-8.036c-6.69,0-11.68-6.01-11.68-21.384s4.99-20.966,11.68-20.966,11.68,5.592,11.68,20.966S1769.54,383.779,1762.84,383.779Zm0-15.428a6.326,6.326,0,1,0-6.06-6.348A5.979,5.979,0,0,0,1762.84,368.351Zm38.69,22.4h39.6v-8.343h-13.7V334.455h-7.55c-3.98,2.27-8.1,3.629-15.21,4.644v6.464h12.54v36.848h-15.68v8.343Zm76.19,1.061c12.78,0,20.92-10.507,20.92-29.42,0-19.025-8.14-29-20.92-29s-20.92,9.977-20.92,29C1856.8,381.308,1864.94,391.815,1877.72,391.815Zm0-8.036c-6.7,0-11.68-6.01-11.68-21.384s4.98-20.966,11.68-20.966,11.68,5.592,11.68,20.966S1884.42,383.779,1877.72,383.779Zm0-15.428a6.326,6.326,0,1,0-6.06-6.348A5.971,5.971,0,0,0,1877.72,368.351ZM20.958,496.892H60.55v-8.343h-13.7V440.593H39.3c-3.98,2.27-8.092,3.629-15.205,4.644V451.7H36.634v36.848H20.958v8.343Zm76.187,1.061c12.775,0,20.917-10.507,20.917-29.42,0-19.025-8.142-29-20.917-29s-20.917,9.977-20.917,29C76.228,487.446,84.37,497.953,97.145,497.953Zm0-8.036c-6.7,0-11.68-6.01-11.68-21.384s4.983-20.966,11.68-20.966,11.68,5.592,11.68,20.966S103.842,489.917,97.145,489.917Zm0-15.428a6.325,6.325,0,1,0-6.062-6.348A5.974,5.974,0,0,0,97.145,474.489Zm38.689,22.4h39.592v-8.343h-13.7V440.593h-7.554c-3.98,2.27-8.092,3.629-15.206,4.644V451.7h12.539v36.848H135.834v8.343Zm76.187,1.061c12.775,0,20.917-10.507,20.917-29.42,0-19.025-8.142-29-20.917-29s-20.917,9.977-20.917,29C191.1,487.446,199.246,497.953,212.021,497.953Zm0-8.036c-6.7,0-11.68-6.01-11.68-21.384s4.983-20.966,11.68-20.966,11.68,5.592,11.68,20.966S218.718,489.917,212.021,489.917Zm0-15.428a6.325,6.325,0,1,0-6.063-6.348A5.974,5.974,0,0,0,212.021,474.489Zm38.689,22.4H290.3v-8.343h-13.7V440.593h-7.554c-3.98,2.27-8.092,3.629-15.206,4.644V451.7h12.539v36.848H250.71v8.343Zm57.438,0H347.74v-8.343h-13.7V440.593H326.49c-3.98,2.27-8.092,3.629-15.206,4.644V451.7h12.539v36.848H308.148v8.343Zm76.187,1.061c12.775,0,20.917-10.507,20.917-29.42,0-19.025-8.142-29-20.917-29s-20.917,9.977-20.917,29C363.418,487.446,371.56,497.953,384.335,497.953Zm0-8.036c-6.7,0-11.68-6.01-11.68-21.384s4.983-20.966,11.68-20.966,11.68,5.592,11.68,20.966S391.032,489.917,384.335,489.917Zm0-15.428a6.325,6.325,0,1,0-6.063-6.348A5.974,5.974,0,0,0,384.335,474.489Zm38.689,22.4h39.592v-8.343h-13.7V440.593h-7.554c-3.98,2.27-8.092,3.629-15.206,4.644V451.7H438.7v36.848H423.024v8.343Zm76.187,1.061c12.775,0,20.916-10.507,20.916-29.42,0-19.025-8.141-29-20.916-29s-20.917,9.977-20.917,29C478.294,487.446,486.436,497.953,499.211,497.953Zm0-8.036c-6.7,0-11.681-6.01-11.681-21.384s4.984-20.966,11.681-20.966,11.68,5.592,11.68,20.966S505.908,489.917,499.211,489.917Zm0-15.428a6.325,6.325,0,1,0-6.063-6.348A5.974,5.974,0,0,0,499.211,474.489Zm38.688,22.4h39.593v-8.343H563.8V440.593h-7.555c-3.979,2.27-8.091,3.629-15.205,4.644V451.7h12.539v36.848H537.9v8.343Zm76.187,1.061c12.775,0,20.917-10.507,20.917-29.42,0-19.025-8.142-29-20.917-29s-20.917,9.977-20.917,29C593.169,487.446,601.311,497.953,614.086,497.953Zm0-8.036c-6.7,0-11.68-6.01-11.68-21.384s4.983-20.966,11.68-20.966,11.681,5.592,11.681,20.966S620.783,489.917,614.086,489.917Zm0-15.428a6.325,6.325,0,1,0-6.062-6.348A5.974,5.974,0,0,0,614.086,474.489Zm38.689,22.4h39.592v-8.343H678.672V440.593h-7.555c-3.98,2.27-8.091,3.629-15.2,4.644V451.7h12.539v36.848H652.775v8.343Zm57.438,0h39.592v-8.343H736.11V440.593h-7.555c-3.98,2.27-8.091,3.629-15.2,4.644V451.7h12.539v36.848H710.213v8.343Zm76.187,1.061c12.775,0,20.917-10.507,20.917-29.42,0-19.025-8.142-29-20.917-29s-20.917,9.977-20.917,29C765.483,487.446,773.625,497.953,786.4,497.953Zm0-8.036c-6.7,0-11.68-6.01-11.68-21.384s4.983-20.966,11.68-20.966,11.68,5.592,11.68,20.966S793.1,489.917,786.4,489.917Zm0-15.428a6.325,6.325,0,1,0-6.062-6.348A5.974,5.974,0,0,0,786.4,474.489Zm38.689,22.4h39.592v-8.343h-13.7V440.593h-7.554c-3.98,2.27-8.092,3.629-15.206,4.644V451.7h12.54v36.848H825.089v8.343Zm76.187,1.061c12.775,0,20.917-10.507,20.917-29.42,0-19.025-8.142-29-20.917-29s-20.917,9.977-20.917,29C880.359,487.446,888.5,497.953,901.276,497.953Zm0-8.036c-6.7,0-11.68-6.01-11.68-21.384s4.983-20.966,11.68-20.966,11.68,5.592,11.68,20.966S907.973,489.917,901.276,489.917Zm0-15.428a6.325,6.325,0,1,0-6.062-6.348A5.974,5.974,0,0,0,901.276,474.489Zm38.689,22.4h39.592v-8.343h-13.7V440.593h-7.554c-3.98,2.27-8.092,3.629-15.206,4.644V451.7H955.64v36.848H939.965v8.343Zm76.185,1.061c12.78,0,20.92-10.507,20.92-29.42,0-19.025-8.14-29-20.92-29s-20.915,9.977-20.915,29C995.235,487.446,1003.38,497.953,1016.15,497.953Zm0-8.036c-6.7,0-11.68-6.01-11.68-21.384s4.98-20.966,11.68-20.966,11.68,5.592,11.68,20.966S1022.85,489.917,1016.15,489.917Zm0-15.428a6.326,6.326,0,1,0-6.06-6.348A5.971,5.971,0,0,0,1016.15,474.489Zm38.69,22.4h39.59v-8.343h-13.69V440.593h-7.56c-3.98,2.27-8.09,3.629-15.2,4.644V451.7h12.54v36.848h-15.68v8.343Zm57.44,0h39.59v-8.343h-13.69V440.593h-7.56c-3.98,2.27-8.09,3.629-15.2,4.644V451.7h12.53v36.848h-15.67v8.343Zm76.19,1.061c12.77,0,20.91-10.507,20.91-29.42,0-19.025-8.14-29-20.91-29s-20.92,9.977-20.92,29C1167.55,487.446,1175.69,497.953,1188.47,497.953Zm0-8.036c-6.7,0-11.68-6.01-11.68-21.384s4.98-20.966,11.68-20.966,11.68,5.592,11.68,20.966S1195.16,489.917,1188.47,489.917Zm0-15.428a6.325,6.325,0,1,0-6.07-6.348A5.976,5.976,0,0,0,1188.47,474.489Zm38.68,22.4h39.6v-8.343h-13.7V440.593h-7.55c-3.98,2.27-8.1,3.629-15.21,4.644V451.7h12.54v36.848h-15.68v8.343Zm76.19,1.061c12.78,0,20.92-10.507,20.92-29.42,0-19.025-8.14-29-20.92-29s-20.92,9.977-20.92,29C1282.42,487.446,1290.57,497.953,1303.34,497.953Zm0-8.036c-6.7,0-11.68-6.01-11.68-21.384s4.98-20.966,11.68-20.966,11.68,5.592,11.68,20.966S1310.04,489.917,1303.34,489.917Zm0-15.428a6.326,6.326,0,1,0-6.06-6.348A5.971,5.971,0,0,0,1303.34,474.489Zm57.44,23.464c12.77,0,20.92-10.507,20.92-29.42,0-19.025-8.15-29-20.92-29s-20.92,9.977-20.92,29C1339.86,487.446,1348,497.953,1360.78,497.953Zm0-8.036c-6.7,0-11.68-6.01-11.68-21.384s4.98-20.966,11.68-20.966,11.68,5.592,11.68,20.966S1367.48,489.917,1360.78,489.917Zm0-15.428a6.326,6.326,0,1,0-6.06-6.348A5.971,5.971,0,0,0,1360.78,474.489Zm38.69,22.4h39.59v-8.343h-13.7V440.593h-7.55c-3.98,2.27-8.09,3.629-15.21,4.644V451.7h12.54v36.848h-15.67v8.343Zm76.18,1.061c12.78,0,20.92-10.507,20.92-29.42,0-19.025-8.14-29-20.92-29s-20.91,9.977-20.91,29C1454.74,487.446,1462.88,497.953,1475.65,497.953Zm0-8.036c-6.69,0-11.68-6.01-11.68-21.384s4.99-20.966,11.68-20.966,11.69,5.592,11.69,20.966S1482.35,489.917,1475.65,489.917Zm0-15.428a6.326,6.326,0,1,0-6.06-6.348A5.979,5.979,0,0,0,1475.65,474.489Zm38.69,22.4h39.6v-8.343h-13.7V440.593h-7.55c-3.98,2.27-8.1,3.629-15.21,4.644V451.7h12.54v36.848h-15.68v8.343Zm76.19,1.061c12.78,0,20.92-10.507,20.92-29.42,0-19.025-8.14-29-20.92-29s-20.92,9.977-20.92,29C1569.61,487.446,1577.76,497.953,1590.53,497.953Zm0-8.036c-6.7,0-11.68-6.01-11.68-21.384s4.98-20.966,11.68-20.966,11.68,5.592,11.68,20.966S1597.23,489.917,1590.53,489.917Zm0-15.428a6.326,6.326,0,1,0-6.06-6.348A5.971,5.971,0,0,0,1590.53,474.489Zm38.69,22.4h39.59v-8.343h-13.69V440.593h-7.56c-3.98,2.27-8.09,3.629-15.2,4.644V451.7h12.53v36.848h-15.67v8.343Zm76.19,1.061c12.77,0,20.91-10.507,20.91-29.42,0-19.025-8.14-29-20.91-29s-20.92,9.977-20.92,29C1684.49,487.446,1692.63,497.953,1705.41,497.953Zm0-8.036c-6.7,0-11.68-6.01-11.68-21.384s4.98-20.966,11.68-20.966,11.68,5.592,11.68,20.966S1712.1,489.917,1705.41,489.917Zm0-15.428a6.325,6.325,0,1,0-6.07-6.348A5.976,5.976,0,0,0,1705.41,474.489Zm38.69,22.4h39.59v-8.343h-13.7V440.593h-7.55c-3.98,2.27-8.09,3.629-15.21,4.644V451.7h12.54v36.848H1744.1v8.343Zm76.18,1.061c12.78,0,20.92-10.507,20.92-29.42,0-19.025-8.14-29-20.92-29s-20.91,9.977-20.91,29C1799.37,487.446,1807.51,497.953,1820.28,497.953Zm0-8.036c-6.69,0-11.68-6.01-11.68-21.384s4.99-20.966,11.68-20.966,11.68,5.592,11.68,20.966S1826.98,489.917,1820.28,489.917Zm0-15.428a6.326,6.326,0,1,0-6.06-6.348A5.971,5.971,0,0,0,1820.28,474.489Zm57.44,23.464c12.78,0,20.92-10.507,20.92-29.42,0-19.025-8.14-29-20.92-29s-20.92,9.977-20.92,29C1856.8,487.446,1864.94,497.953,1877.72,497.953Zm0-8.036c-6.7,0-11.68-6.01-11.68-21.384s4.98-20.966,11.68-20.966,11.68,5.592,11.68,20.966S1884.42,489.917,1877.72,489.917Zm0-15.428a6.326,6.326,0,1,0-6.06-6.348A5.971,5.971,0,0,0,1877.72,474.489Z"/>
</svg>
