<svg xmlns="http://www.w3.org/2000/svg" width="2399" height="633" viewBox="0 0 2399 633">
  <path id="SCRIPTS" fill="#be90d4" d="M190.666,486.066c76.405,0,121.139-44.252,121.139-97.353,0-47.216-29.431-72.051-71.032-88.051L197.893,282c-29.652-11.367-55.747-20.665-55.747-46.109,0-24.178,20.912-38.14,51.938-38.14,32.9,0,55.513,10.215,77.747,27.931l29.708-36.91c-26.753-26.019-64.588-41.6-104.67-41.6-66.721,0-113.556,40.119-113.556,92.138,0,47.949,35.43,73.335,69.766,86.7l44.931,19.532c31.9,13.45,54.279,21.247,54.279,50.375,0,22.843-20.127,39.571-58.153,39.571-34.248,0-66.413-14.9-91.229-37.2L69.1,438.3C101.166,468.535,144.685,486.066,190.666,486.066Zm363.432,0c43.684,0,78.2-16.949,104.253-47.683l-32.442-35.227c-18.114,20.064-39.279,32.33-65.976,32.33-55.71,0-93.039-45.077-93.039-119.686,0-73.241,37.329-118.052,91.571-118.052,25.481,0,44.963,10.215,61.229,26.38L652.135,187.9c-20.784-21.367-53.252-40.734-93.67-40.734-86.417,0-151.4,63.582-151.4,170.367C407.061,426,473.1,486.066,554.1,486.066Zm202.687-6h58.466V352.394h50.824c67.784,0,120.505-31.867,120.505-102.139,0-73.087-52.721-97.087-120.5-97.087H756.785v326.9Zm58.466-174.151V199.647h44.824c44.76,0,69.09,13.114,69.09,50.608,0,36.862-24.33,55.66-69.09,55.66H815.251Zm39.755,30.942L933.9,480.066h65.3L897.181,302.01ZM1094.48,480.066h215.65v-48.9h-78.75V202.064h78.75v-48.9H1094.48v48.9h78.75V431.17h-78.75v48.9Zm339.35,0h58.15V359.976h49.29c70.53,0,124.62-32.917,124.62-106.088,0-75.67-53.04-100.72-124.62-100.72H1433.83v326.9ZM1491.98,313.5V199.647h44.65c47.51,0,71.84,13.848,71.84,54.241,0,40.077-23.28,59.609-71.84,59.609h-44.65Zm356.24,166.569h58.15v-278h102.99v-48.9H1745.23v48.9h102.99v278Zm367.42,6c76.4,0,121.14-44.252,121.14-97.353,0-47.216-29.43-72.051-71.03-88.051L2222.87,282c-29.66-11.367-55.75-20.665-55.75-46.109,0-24.178,20.91-38.14,51.94-38.14,32.9,0,55.51,10.215,77.74,27.931l29.71-36.91c-26.75-26.019-64.59-41.6-104.67-41.6-66.72,0-113.56,40.119-113.56,92.138,0,47.949,35.44,73.335,69.77,86.7l44.93,19.532c31.9,13.45,54.28,21.247,54.28,50.375,0,22.843-20.13,39.571-58.15,39.571-34.25,0-66.42-14.9-91.23-37.2L2094.07,438.3C2126.14,468.535,2169.66,486.066,2215.64,486.066Z"/>
  <path id="SCRIPTS-2" fill="#4b77be" d="M180.666,476.066c76.405,0,121.139-44.252,121.139-97.353,0-47.216-29.431-72.051-71.032-88.051L187.893,272c-29.652-11.367-55.747-20.665-55.747-46.109,0-24.178,20.912-38.14,51.938-38.14,32.9,0,55.513,10.215,77.747,27.931l29.708-36.91c-26.753-26.019-64.588-41.6-104.67-41.6-66.721,0-113.556,40.119-113.556,92.138,0,47.949,35.43,73.335,69.766,86.7l44.931,19.532c31.9,13.45,54.279,21.247,54.279,50.375,0,22.843-20.127,39.571-58.153,39.571-34.248,0-66.413-14.9-91.229-37.2L59.1,428.3C91.166,458.535,134.685,476.066,180.666,476.066Zm363.432,0c43.684,0,78.2-16.949,104.253-47.683l-32.442-35.227c-18.114,20.064-39.279,32.33-65.976,32.33-55.71,0-93.039-45.077-93.039-119.686,0-73.241,37.329-118.052,91.571-118.052,25.481,0,44.963,10.215,61.229,26.38L642.135,177.9c-20.784-21.367-53.252-40.734-93.67-40.734-86.417,0-151.4,63.582-151.4,170.367C397.061,416,463.1,476.066,544.1,476.066Zm202.687-6h58.466V342.394h50.824c67.784,0,120.505-31.867,120.505-102.139,0-73.087-52.721-97.087-120.5-97.087H746.785v326.9Zm58.466-174.151V189.647h44.824c44.76,0,69.09,13.114,69.09,50.608,0,36.862-24.33,55.66-69.09,55.66H805.251Zm39.755,30.942L923.9,470.066h65.3L887.181,292.01ZM1084.48,470.066h215.65v-48.9h-78.75V192.064h78.75v-48.9H1084.48v48.9h78.75V421.17h-78.75v48.9Zm339.35,0h58.15V349.976h49.29c70.53,0,124.62-32.917,124.62-106.088,0-75.67-53.04-100.72-124.62-100.72H1423.83v326.9ZM1481.98,303.5V189.647h44.65c47.51,0,71.84,13.848,71.84,54.241,0,40.077-23.28,59.609-71.84,59.609h-44.65Zm356.24,166.569h58.15v-278h102.99v-48.9H1735.23v48.9h102.99v278Zm367.42,6c76.4,0,121.14-44.252,121.14-97.353,0-47.216-29.43-72.051-71.03-88.051L2212.87,272c-29.66-11.367-55.75-20.665-55.75-46.109,0-24.178,20.91-38.14,51.94-38.14,32.9,0,55.51,10.215,77.74,27.931l29.71-36.91c-26.75-26.019-64.59-41.6-104.67-41.6-66.72,0-113.56,40.119-113.56,92.138,0,47.949,35.44,73.335,69.77,86.7l44.93,19.532c31.9,13.45,54.28,21.247,54.28,50.375,0,22.843-20.13,39.571-58.15,39.571-34.25,0-66.42-14.9-91.23-37.2L2084.07,428.3C2116.14,458.535,2159.66,476.066,2205.64,476.066Z"/>
  <path id="SCRIPTS-3" fill="#36d7b7" d="M170.666,466.066c76.405,0,121.139-44.252,121.139-97.353,0-47.216-29.431-72.051-71.032-88.051L177.893,262c-29.652-11.367-55.747-20.665-55.747-46.109,0-24.178,20.912-38.14,51.938-38.14,32.9,0,55.513,10.215,77.747,27.931l29.708-36.91c-26.753-26.019-64.588-41.6-104.67-41.6-66.721,0-113.556,40.119-113.556,92.138,0,47.949,35.431,73.335,69.766,86.7l44.931,19.532c31.9,13.45,54.279,21.247,54.279,50.375,0,22.843-20.127,39.571-58.153,39.571-34.248,0-66.413-14.9-91.229-37.2L49.1,418.3C81.166,448.535,124.685,466.066,170.666,466.066Zm363.432,0c43.684,0,78.2-16.949,104.253-47.683l-32.442-35.227c-18.114,20.064-39.279,32.33-65.976,32.33-55.71,0-93.039-45.077-93.039-119.686,0-73.241,37.329-118.052,91.571-118.052,25.481,0,44.963,10.215,61.229,26.38L632.135,167.9c-20.784-21.367-53.252-40.734-93.67-40.734-86.417,0-151.4,63.582-151.4,170.367C387.061,406,453.1,466.066,534.1,466.066Zm202.687-6h58.466V332.394h50.824c67.784,0,120.505-31.867,120.505-102.139,0-73.087-52.721-97.087-120.5-97.087H736.785v326.9Zm58.466-174.151V179.647h44.824c44.76,0,69.09,13.114,69.09,50.608,0,36.862-24.33,55.66-69.09,55.66H795.251Zm39.755,30.942L913.9,460.066h65.3L877.181,282.01ZM1074.48,460.066h215.65v-48.9h-78.75V182.064h78.75v-48.9H1074.48v48.9h78.75V411.17h-78.75v48.9Zm339.35,0h58.15V339.976h49.29c70.53,0,124.62-32.917,124.62-106.088,0-75.67-53.04-100.72-124.62-100.72H1413.83v326.9ZM1471.98,293.5V179.647h44.65c47.51,0,71.84,13.848,71.84,54.241,0,40.077-23.28,59.609-71.84,59.609h-44.65Zm356.24,166.569h58.15v-278h102.99v-48.9H1725.23v48.9h102.99v278Zm367.42,6c76.4,0,121.14-44.252,121.14-97.353,0-47.216-29.43-72.051-71.03-88.051L2202.87,262c-29.66-11.367-55.75-20.665-55.75-46.109,0-24.178,20.91-38.14,51.94-38.14,32.9,0,55.51,10.215,77.74,27.931l29.71-36.91c-26.75-26.019-64.59-41.6-104.67-41.6-66.72,0-113.56,40.119-113.56,92.138,0,47.949,35.44,73.335,69.77,86.7l44.93,19.532c31.9,13.45,54.28,21.247,54.28,50.375,0,22.843-20.13,39.571-58.15,39.571-34.25,0-66.42-14.9-91.23-37.2L2074.07,418.3C2106.14,448.535,2149.66,466.066,2195.64,466.066Z"/>
  <path id="SCRIPTS-4" fill="#ff69b4" d="M160.666,456.066c76.405,0,121.139-44.252,121.139-97.353,0-47.216-29.431-72.051-71.032-88.051L167.893,252c-29.652-11.367-55.747-20.665-55.747-46.109,0-24.178,20.912-38.14,51.938-38.14,32.9,0,55.513,10.215,77.747,27.931l29.708-36.91c-26.753-26.019-64.588-41.6-104.67-41.6-66.721,0-113.556,40.119-113.556,92.138,0,47.949,35.431,73.335,69.766,86.7l44.931,19.532c31.9,13.45,54.279,21.247,54.279,50.375,0,22.843-20.127,39.571-58.153,39.571-34.248,0-66.413-14.9-91.229-37.2L39.1,408.3C71.166,438.535,114.685,456.066,160.666,456.066Zm363.432,0c43.684,0,78.2-16.949,104.253-47.683l-32.442-35.227c-18.114,20.064-39.279,32.33-65.976,32.33-55.71,0-93.039-45.077-93.039-119.686,0-73.241,37.329-118.052,91.571-118.052,25.481,0,44.963,10.215,61.229,26.38L622.135,157.9c-20.784-21.367-53.252-40.734-93.67-40.734-86.417,0-151.4,63.582-151.4,170.367C377.061,396,443.1,456.066,524.1,456.066Zm202.687-6h58.466V322.394h50.824c67.784,0,120.505-31.867,120.505-102.139,0-73.087-52.721-97.087-120.5-97.087H726.785v326.9Zm58.466-174.151V169.647h44.824c44.76,0,69.09,13.114,69.09,50.608,0,36.862-24.33,55.66-69.09,55.66H785.251Zm39.755,30.942L903.9,450.066h65.3L867.181,272.01ZM1064.48,450.066h215.65v-48.9h-78.75V172.064h78.75v-48.9H1064.48v48.9h78.75V401.17h-78.75v48.9Zm339.35,0h58.15V329.976h49.29c70.53,0,124.62-32.917,124.62-106.088,0-75.67-53.04-100.72-124.62-100.72H1403.83v326.9ZM1461.98,283.5V169.647h44.65c47.51,0,71.84,13.848,71.84,54.241,0,40.077-23.28,59.609-71.84,59.609h-44.65Zm356.24,166.569h58.15v-278h102.99v-48.9H1715.23v48.9h102.99v278Zm367.42,6c76.4,0,121.14-44.252,121.14-97.353,0-47.216-29.43-72.051-71.03-88.051L2192.87,252c-29.66-11.367-55.75-20.665-55.75-46.109,0-24.178,20.91-38.14,51.94-38.14,32.9,0,55.51,10.215,77.74,27.931l29.71-36.91c-26.75-26.019-64.59-41.6-104.67-41.6-66.72,0-113.56,40.119-113.56,92.138,0,47.949,35.44,73.335,69.77,86.7l44.93,19.532c31.9,13.45,54.28,21.247,54.28,50.375,0,22.843-20.13,39.571-58.15,39.571-34.25,0-66.42-14.9-91.23-37.2L2064.07,408.3C2096.14,438.535,2139.66,456.066,2185.64,456.066Z"/>
  <path id="SCRIPTS-5" fill="#424242" d="M150.666,448.066c76.405,0,121.139-44.252,121.139-97.353,0-47.216-29.431-72.051-71.032-88.051L157.893,244c-29.652-11.367-55.747-20.665-55.747-46.109,0-24.178,20.912-38.14,51.938-38.14,32.9,0,55.513,10.215,77.747,27.931l29.708-36.91c-26.753-26.019-64.588-41.6-104.67-41.6-66.721,0-113.556,40.119-113.556,92.138,0,47.949,35.431,73.335,69.766,86.7l44.931,19.532c31.9,13.45,54.279,21.247,54.279,50.375,0,22.843-20.127,39.571-58.153,39.571-34.248,0-66.413-14.9-91.229-37.2L29.1,400.3C61.166,430.535,104.685,448.066,150.666,448.066Zm363.432,0c43.684,0,78.2-16.949,104.253-47.683l-32.442-35.227c-18.114,20.064-39.279,32.33-65.976,32.33-55.71,0-93.039-45.077-93.039-119.686,0-73.241,37.329-118.052,91.571-118.052,25.481,0,44.963,10.215,61.229,26.38L612.135,149.9c-20.784-21.367-53.252-40.734-93.67-40.734-86.417,0-151.4,63.582-151.4,170.367C367.061,388,433.1,448.066,514.1,448.066Zm202.687-6h58.466V314.394h50.824c67.784,0,120.505-31.867,120.505-102.139,0-73.087-52.721-97.087-120.5-97.087H716.785v326.9Zm58.466-174.151V161.647h44.824c44.76,0,69.09,13.114,69.09,50.608,0,36.862-24.33,55.66-69.09,55.66H775.251Zm39.755,30.942L893.9,442.066h65.3L857.181,264.01ZM1054.48,442.066h215.65v-48.9h-78.75V164.064h78.75v-48.9H1054.48v48.9h78.75V393.17h-78.75v48.9Zm339.35,0h58.15V321.976h49.29c70.53,0,124.62-32.917,124.62-106.088,0-75.67-53.04-100.72-124.62-100.72H1393.83v326.9ZM1451.98,275.5V161.647h44.65c47.51,0,71.84,13.848,71.84,54.241,0,40.077-23.28,59.609-71.84,59.609h-44.65Zm356.24,166.569h58.15v-278h102.99v-48.9H1705.23v48.9h102.99v278Zm367.42,6c76.4,0,121.14-44.252,121.14-97.353,0-47.216-29.43-72.051-71.03-88.051L2182.87,244c-29.66-11.367-55.75-20.665-55.75-46.109,0-24.178,20.91-38.14,51.94-38.14,32.9,0,55.51,10.215,77.74,27.931l29.71-36.91c-26.75-26.019-64.59-41.6-104.67-41.6-66.72,0-113.56,40.119-113.56,92.138,0,47.949,35.44,73.335,69.77,86.7l44.93,19.532c31.9,13.45,54.28,21.247,54.28,50.375,0,22.843-20.13,39.571-58.15,39.571-34.25,0-66.42-14.9-91.23-37.2L2054.07,400.3C2086.14,430.535,2129.66,448.066,2175.64,448.066Z"/>
</svg>
